<svg style="position: absolute; width: 0; height: 0; overflow: hidden;" aria-hidden="true" version="1.1" xmlns="http://www.w3.org/2000/svg" xmlns:xlink="http://www.w3.org/1999/xlink">
    <defs>
        <symbol id="Youtube" viewBox="0 0 24 24" fill="none">
            <title>Youtube</title>
            <path fill="#fff" d="M21.5933 7.203c-0.1139-0.4226-0.3365-0.808-0.6456-1.1178-0.3091-0.3099-0.694-0.5333-1.1164-0.6482C18.2653 5.007 12.0003 5 12.0003 5s-6.264-7e-3-7.831 0.404c-0.422 0.1201-0.8061 0.3468-1.1154 0.6581-0.3093 0.3114-0.5333 0.697-0.6506 1.1199-0.413 1.566-0.417 4.814-0.417 4.814s-4e-3 3.264 0.406 4.814c0.23 0.857 0.905 1.534 1.763 1.765 1.582 0.43 7.83 0.437 7.83 0.437s6.265 7e-3 7.831-0.403c0.4225-0.1147 0.8078-0.3376 1.1177-0.6468s0.5337-0.694 0.6493-1.1162c0.414-1.565 0.417-4.812 0.417-4.812s0.02-3.265-0.407-4.831zM9.9963 15.005l5e-3-6 5.207 3.005z" />
        </symbol>
        <symbol id="x" viewBox="0 0 24 24" fill="none">
            <title>x</title>
            <path fill="#fff" d="M17.1761 4.2427l2.7601 0-6.0301 6.7774L21 20.2427h-5.5544l-4.3505-5.5934-4.9779 5.5934H3.3554l6.4498-7.2492L3 4.2427l5.6954 0 3.9325 5.1126zM16.2073 18.6181h1.5295L7.8644 5.782l-1.6412 0z" />
        </symbol>
        <symbol id="star-full" viewBox="0 0 20 19" fill="none">
            <title>star-full</title>
            <path fill="currentColor" d="M9.0709 0.6123c0.3437-0.8164 1.5145-0.8164 1.8582 0l2.0288 4.8189c0.145 0.3442 0.4727 0.5794 0.8488 0.6092l5.266 0.4171c0.8922 0.0706 1.254 1.1706 0.5742 1.7459l-4.0121 3.3953c-0.2866 0.2425-0.4118 0.6231-0.3242 0.9856l1.2257 5.0767c0.2077 0.8601-0.7394 1.54-1.5033 1.0791l-4.5085-2.7205c-0.322-0.1944-0.727-0.1944-1.049 0L4.967 18.7401c-0.7639 0.4609-1.711-0.219-1.5034-1.0791l1.2258-5.0767c0.0876-0.3625-0.0376-0.7431-0.3241-0.9856L0.3531 8.2034c-0.6798-0.5753-0.318-1.6753 0.5742-1.7459l5.2661-0.4171c0.3761-0.0298 0.7038-0.265 0.8487-0.6092z" />
        </symbol>
        <symbol id="star-empty" viewBox="0 0 20 19" fill="none">
            <title>star-empty</title>
            <path stroke="currentColor" d="M9.5313 0.8066c0.1719-0.4084 0.7655-0.4084 0.9375 0l2.0283 4.8184c0.2184 0.5186 0.7105 0.8697 1.2705 0.9141l5.2656 0.4169c0.4577 0.0362 0.6213 0.5851 0.291 0.8652l-4.0127 3.3955c-0.4296 0.3636-0.6196 0.9374-0.4873 1.4853l1.2266 5.0762c0.0994 0.4119-0.3616 0.7735-0.7598 0.5332h-1e-3l-4.5068-2.7197c-0.4809-0.2902-1.0855-0.2902-1.5664 0L4.709 18.3115c-0.3982 0.2403-0.8592-0.1213-0.7598-0.5332l1.2266-5.0762c0.1323-0.5478-0.0577-1.1216-0.4873-1.4853L0.6758 7.8213c-0.3304-0.2801-0.1667-0.829 0.291-0.8653l5.2656-0.417c0.56-0.0444 1.0522-0.3954 1.2705-0.9141z" />
        </symbol>
        <symbol id="star" viewBox="0 0 24 24" fill="none">
            <title>star</title>
            <path fill="#fff" d="M6.516 14.323l-1.49 6.452c-0.0461 0.1954-0.0323 0.4001 0.0398 0.5875s0.1989 0.3487 0.364 0.4628c0.1651 0.1142 0.3608 0.1759 0.5616 0.1771s0.3971-0.0582 0.5636-0.1704L12 18.202l5.445 3.63c0.1704 0.1131 0.3712 0.1713 0.5757 0.1668 0.2044-44e-4 0.4025-0.0714 0.5677-0.1919 0.1652-0.1204 0.2896-0.2886 0.3564-0.4818 0.0668-0.1933 0.0728-0.4023 0.0172-0.5991l-1.829-6.4 4.536-4.082c0.1453-0.1308 0.2491-0.3013 0.2984-0.4905 0.0494-0.1891 0.0423-0.3886-0.0205-0.5738s-0.1784-0.3478-0.3327-0.4679C21.46 8.5917 21.2739 8.5195 21.079 8.504L15.378 8.05 12.911 2.589c-0.0786-0.1758-0.2065-0.3252-0.3682-0.4299C12.3812 2.0543 12.1927 1.9985 12 1.9985c-0.1926 0-0.3811 0.0558-0.5428 0.1606-0.1616 0.1047-0.2895 0.2541-0.3682 0.4299L8.622 8.05 2.921 8.503C2.7295 8.5182 2.5464 8.5882 2.3936 8.7047S2.1248 8.9793 2.0595 9.16 1.9824 9.5364 2.0254 9.7237s0.139 0.3582 0.2766 0.4923zM9.369 9.997C9.5475 9.9829 9.719 9.9211 9.8653 9.818c0.1464-0.1031 0.2624-0.2437 0.3357-0.407L12 5.43l1.799 3.981c0.0734 0.1633 0.1893 0.3039 0.3357 0.407 0.1464 0.1031 0.3178 0.1649 0.4963 0.179l3.972 0.315-3.271 2.944c-0.284 0.256-0.397 0.65-0.293 1.018l1.253 4.385-3.736-2.491c-0.164-0.1101-0.357-0.1688-0.5545-0.1688s-0.3905 0.0587-0.5545 0.1688l-3.904 2.603 1.05-4.546c0.0385-0.1672 0.0334-0.3415-0.015-0.5061s-0.1382-0.3141-0.261-0.4339l-3.038-2.962z" />
        </symbol>
        <symbol id="restaurant" viewBox="0 0 24 24" fill="none">
            <title>restaurant</title>
            <path fill="#fff" d="M12 10h-2V3H8v7H6V3H4v8c0 1.654 1.346 3 3 3h1v7h2v-7h1c1.654 0 3-1.346 3-3V3h-2zM19 3h-1c-1.159 0-2 1.262-2 3v8h2v7h2V4c0-0.2652-0.1054-0.5196-0.2929-0.7071C19.5196 3.1054 19.2652 3 19 3z" />
        </symbol>
        <symbol id="phone" viewBox="0 0 24 24" fill="none">
            <title>phone</title>
            <path fill="currentColor" d="M17.7068 12.2932c-0.0927-0.0929-0.2029-0.1667-0.3243-0.217C17.2612 12.0259 17.1312 12 16.9998 12c-0.1313 0-0.2613 0.0259-0.3826 0.0762-0.1214 0.0503-0.2316 0.1241-0.3244 0.217l-1.594 1.594c-0.739-0.22-2.118-0.72-2.992-1.594s-1.374-2.253-1.594-2.992l1.594-1.594c0.093-0.0928 0.1667-0.203 0.217-0.3243C11.9742 7.2616 12 7.1315 12 7.0002s-0.0258-0.2614-0.0762-0.3827c-0.0503-0.1213-0.124-0.2315-0.217-0.3243l-4-4c-0.0928-0.0929-0.2031-0.1667-0.3244-0.217S7.1312 2 6.9999 2C6.8685 2 6.7385 2.0259 6.6172 2.0762 6.4958 2.1265 6.3856 2.2003 6.2928 2.2932l-2.712 2.712c-0.3801 0.38-0.5941 0.902-0.5861 1.435 0.0229 1.424 0.3999 6.37 4.2979 10.268 3.8979 3.898 8.8439 4.274 10.2689 4.298h0.028c0.528 0 1.027-0.208 1.405-0.586l2.712-2.712c0.093-0.0928 0.1667-0.203 0.217-0.3243S22 17.1325 22 17.0012s-0.0259-0.2614-0.0762-0.3827-0.124-0.2315-0.217-0.3243zM17.5798 19.0052c-1.248-0.021-5.518-0.356-8.873-3.712-3.3661-3.366-3.6921-7.651-3.7121-8.874l2.005-2.005 2.586 2.586-1.2931 1.293c-0.1176 0.1174-0.204 0.2623-0.2515 0.4216S7.9868 9.0426 8.0209 9.2052c0.0239 0.115 0.6109 2.842 2.2709 4.502 1.66 1.66 4.387 2.247 4.502 2.271 0.1626 0.035 0.3313 0.0285 0.4907-0.0189s0.3043-0.1341 0.4213-0.2521l1.294-1.293 2.586 2.586z" />
        </symbol>
        <symbol id="menu" viewBox="0 0 24 24" fill="none">
            <title>menu</title>
            <path fill="#fff" d="M4 6h16v2H4zM4 11h16v2H4zM4 16h16v2H4z" />
        </symbol>
        <symbol id="LinkedIn" viewBox="0 0 24 24" fill="none">
            <title>LinkedIn</title>
            <path fill="#fff" d="M19.3125 3H4.6875C3.7594 3 3 3.7594 3 4.6875v14.625C3 20.2406 3.7594 21 4.6875 21h14.625C20.2406 21 21 20.2406 21 19.3125V4.6875C21 3.7594 20.2406 3 19.3125 3zM9.75 17.625H7.5V9.75h2.25zM8.625 8.625C8.0029 8.625 7.5 8.1221 7.5 7.5c0-0.6221 0.5029-1.125 1.125-1.125S9.75 6.8779 9.75 7.5c0 0.6221-0.5029 1.125-1.125 1.125zM17.625 17.625h-2.25v-4.5c0-0.6221-0.5029-1.125-1.125-1.125s-1.125 0.5029-1.125 1.125v4.5h-2.25V9.75h2.25v1.3956c0.4641-0.6362 1.1739-1.3956 1.9688-1.3956 1.3994 0 2.5312 1.2589 2.5312 2.8125z" />
        </symbol>
        <symbol id="Instagram" viewBox="0 0 24 24" fill="#fff">
            <title>Instagram</title>
            <path d="M11.9988 4.6209c2.4044 0 2.689 0.0107 3.6344 0.0529 0.8791 0.0388 1.3532 0.1861 1.6698 0.3093 0.4185 0.162 0.7205 0.3588 1.0332 0.6715 0.3166 0.3166 0.5096 0.6152 0.6749 1.0337 0.1232 0.3166 0.2705 0.7941 0.3093 1.6698 0.0422 0.9494 0.0529 1.234 0.0529 3.635 0 2.401-0.0107 2.6889-0.0529 3.6349-0.0388 0.8791-0.1861 1.3532-0.3093 1.6699-0.162 0.4184-0.3583 0.7204-0.6715 1.0331-0.3167 0.3167-0.6153 0.5096-1.0332 0.675-0.3166 0.1231-0.7947 0.2705-1.6698 0.3093-0.9494 0.0422-1.234 0.0529-3.635 0.0529-2.401 0-2.6889-0.0107-3.6349-0.0529-0.8791-0.0388-1.3532-0.1862-1.6699-0.3093-0.4184-0.162-0.7205-0.3583-1.0337-0.6716-0.3167-0.3166-0.5096-0.6153-0.6749-1.0332-0.1232-0.3166-0.2706-0.7947-0.3094-1.6698-0.0421-0.9494-0.0528-1.234-0.0528-3.635 0-2.4009 0.0107-2.6889 0.0528-3.6349 0.0389-0.8791 0.1862-1.3532 0.3094-1.6698 0.162-0.4185 0.3588-0.7205 0.6715-1.0338 0.3167-0.3166 0.6153-0.5095 1.0337-0.6749 0.3167-0.1232 0.7942-0.2705 1.6699-0.3093 0.9454-0.0422 1.2306-0.0529 3.6349-0.0529zM11.9988 3.0006c-2.4432 0-2.7486 0.0107-3.7086 0.0528-0.9561 0.0422-1.6136 0.1969-2.1828 0.4185-0.5939 0.2317-1.0967 0.5376-1.5956 1.0405C4.009 5.0118 3.703 5.514 3.4713 6.1046 3.2497 6.6777 3.0951 7.3312 3.0529 8.2874 3.0107 9.2508 3 9.5562 3 11.9994c0 2.4431 0.0107 2.7485 0.0529 3.7086 0.0421 0.9561 0.1968 1.6136 0.4184 2.1828 0.2323 0.5939 0.5377 1.0967 1.0405 1.5956 0.4989 0.4988 1.0017 0.8087 1.5922 1.0371 0.5731 0.2216 1.2267 0.3762 2.1828 0.4184 0.9595 0.0422 1.2654 0.0529 3.7086 0.0529 2.4432 0 2.7492-0.0107 3.7087-0.0529 0.9561-0.0422 1.6136-0.1968 2.1827-0.4184 0.5906-0.2284 1.0934-0.5377 1.5923-1.0371 0.4988-0.4995 0.8087-1.0017 1.0371-1.5923 0.2216-0.5731 0.3762-1.2266 0.4184-2.1827 0.0422-0.9595 0.0529-1.2655 0.0529-3.7087 0-2.4431-0.0107-2.7485-0.0529-3.7086-0.0422-0.9561-0.1968-1.6136-0.4184-2.1828-0.2216-0.5978-0.5276-1.1001-1.0298-1.5995-0.4989-0.4989-1.0017-0.8088-1.5923-1.0371-0.5731-0.2216-1.2266-0.3763-2.1827-0.4185C14.7485 3.0107 14.4425 3 11.9994 3z" />
            <path d="M11.9985 7.377C9.4468 7.377 7.376 9.4472 7.376 11.9995c0 2.5523 2.0703 4.6226 4.6225 4.6226 2.5523 0 4.6226-2.0703 4.6226-4.6226 0-2.5517-2.0703-4.6226-4.6226-4.6226zM11.9985 14.9978c-1.6557 0-2.9982-1.3425-2.9982-2.9983s1.3425-2.9983 2.9982-2.9983c1.6558 0 2.9983 1.3425 2.9983 2.9983s-1.3425 2.9983-2.9983 2.9983z" />
            <path d="M17.8822 7.194c0 0.5962-0.4831 1.0793-1.0793 1.0793-0.5961 0-1.0793-0.4831-1.0793-1.0793s0.4832-1.0792 1.0793-1.0792c0.5962-1e-4 1.0793 0.4831 1.0793 1.0792z" />
        </symbol>
        <symbol id="health" viewBox="0 0 24 24" fill="none">
            <title>health</title>
            <path fill="#fff" d="M19.6486 5.2859l-5.649 3.262v-6.523h-4l0 6.523-5.649-3.262-2 3.465 5.648 3.261-5.648 3.261 2 3.465 5.649-3.261 0 6.523h4v-6.523l5.649 3.261 2-3.465-5.648-3.261 5.648-3.261z" />
        </symbol>
        <symbol id="Google" viewBox="0 0 24 24" fill="none">
            <title>Google</title>
            <path fill="#fff" d="M21 11.7898c0 4.15-2.21 9.21-8.87 9.21-5.0054 0.0332-9.0915-3.9947-9.13-9 0.0385-5.0054 4.1246-9.0333 9.13-9.0001 2.0707 77e-4 4.0785 0.7122 5.7 2 0.112 0.0915 0.1809 0.2256 0.19 0.37 6e-4 0.1461-0.057 0.2864-0.16 0.39-0.651 0.5952-1.2718 1.2227-1.86 1.88-0.1711 0.1883-0.4578 0.2144-0.66 0.06-0.9239-0.6837-2.0512-1.036-3.2-1-2.9547 0-5.35 2.3953-5.35 5.3501 0 2.9547 2.3953 5.35 5.35 5.35 3 0 4.27-1.28 4.93-3.55H12.5c-0.2761 0-0.5-0.2239-0.5-0.5v-2.65c0-0.2762 0.2239-0.5 0.5-0.5h8c0.2302-15e-4 0.4244 0.1711 0.45 0.4 0.0371 0.3955 0.0538 0.7927 0.05 1.19z" />
        </symbol>
        <symbol id="Facebook" viewBox="0 0 24 24" fill="none">
            <title>Facebook</title>
            <path fill="#fff" d="M22 12.3038c0-5.5566-4.4771-10.0611-10-10.0611-5.5228 0-10 4.5045-10 10.0611 0 5.0217 3.6568 9.1841 8.4375 9.9389v-7.0306H7.8984l0-2.9083h2.5391v-2.2166c0-2.5216 1.493-3.9144 3.7771-3.9144 1.0942 0 2.2385 0.1965 2.2385 0.1965v2.476l-1.2609 0c-1.2422 0-1.6297 0.7756-1.6297 1.5713v1.8872h2.7734l-0.4433 2.9083h-2.3301v7.0306C18.3432 21.4879 22 17.3257 22 12.3038z" />
        </symbol>
        <symbol id="envelope" viewBox="0 0 24 24" fill="none">
            <title>envelope</title>
            <path fill="currentColor" d="M20 4H4C2.897 4 2 4.897 2 6v12c0 1.103 0.897 2 2 2h16c1.103 0 2-0.897 2-2V6c0-1.103-0.897-2-2-2zM20 6v0.511l-8 6.223-8-6.222V6zM4 18V9.044l7.386 5.745c0.1751 0.1375 0.3913 0.2123 0.614 0.2123s0.4389-0.0748 0.614-0.2123L20 9.044 20.002 18z" />
        </symbol>
        <symbol id="chevron-up" viewBox="0 0 24 24" fill="none">
            <title>chevron-up</title>
            <path fill="#fff" d="M6.293 14.2929l1.414 1.414 4.293-4.293 4.293 4.293 1.414-1.414L12 8.5859z" />
        </symbol>
        <symbol id="chevron-right" viewBox="0 0 24 24" fill="none">
            <title>chevron-right</title>
            <path fill="#fff" d="M9.707 16.9496l5.707-5.707-5.707-5.707-1.414 1.414 4.293 4.293-4.293 4.293z" />
        </symbol>
        <symbol id="chevron-left" viewBox="0 0 24 24" fill="none">
            <title>chevron-left</title>
            <path fill="#fff" d="M13.2929 6.293 7.5859 12l5.707 5.707 1.414-1.414L10.4139 12l4.293-4.293z" />
        </symbol>
        <symbol id="chevron-down" viewBox="0 0 24 24" fill="none">
            <title>chevron-down</title>
            <path fill="#fff" d="M16.293 8.293 12 12.586 7.707 8.293 6.293 9.707 12 15.414l5.707-5.707z" />
        </symbol>
        <symbol id="cheese" viewBox="0 0 24 24" fill="#fff">
            <title>cheese</title>
            <path d="M15.1596 2.0003c-0.2284-0.0342-0.4616 0.0117-0.66 0.13l-12 7c-0.0474 0.0276-0.0911 0.0612-0.13 0.1l-0.1 0.08c-0.068 0.0787-0.1251 0.1661-0.17 0.26-0.0711 0.1318-0.1056 0.2803-0.1 0.43l0 10c0 0.2652 0.1054 0.5195 0.2929 0.7071 0.1875 0.1875 0.4419 0.2929 0.7071 0.2929h18c0.2652 0 0.5196-0.1054 0.7071-0.2929 0.1876-0.1876 0.2929-0.4419 0.2929-0.7071v-10c38e-4-1.9308-0.684-3.7991-1.9387-5.2665-1.2547-1.4675-2.9934-2.4372-4.9013-2.7335zM15.1596 4.0503c1.2023 0.2462 2.3017 0.851 3.1533 1.7347 0.8515 0.8837 1.4152 2.0047 1.6167 3.2153l-13.23 0zM19.9996 19.0003h-16l0-8h16z" />
            <path d="M6.4996 18.0002c0.8285 0 1.5-0.6715 1.5-1.5 0-0.8284-0.6715-1.5-1.5-1.5-0.8284 0-1.5 0.6716-1.5 1.5 0 0.8285 0.6716 1.5 1.5 1.5z" />
            <path d="M11.4996 15.0002c0.8285 0 1.5-0.6715 1.5-1.5 0-0.8284-0.6715-1.5-1.5-1.5-0.8284 0-1.5 0.6716-1.5 1.5 0 0.8285 0.6716 1.5 1.5 1.5z" />
            <path d="M16.9996 18.0002c1.1046 0 2-0.8954 2-2 0-1.1045-0.8954-2-2-2-1.1045 0-2 0.8955-2 2 0 1.1046 0.8955 2 2 2z" />
        </symbol>
        <symbol id="basketball" viewBox="0 0 24 24" fill="none">
            <title>basketball</title>
            <path fill="#fff" d="M4.9291 19.0712c1.895 1.895 4.405 2.938 7.071 2.938 2.666 0 5.177-1.043 7.071-2.938 3.899-3.899 3.899-10.243 0-14.143-1.894-1.894-4.406-2.938-7.071-2.938-2.665 0-5.177 1.044-7.071 2.939-3.899 3.898-3.899 10.243 0 14.142zM12.3091 4.0062c1.6702 0.0602 3.2783 0.6476 4.594 1.678l-4.903 4.902-1.46-1.46c1.161-1.479 1.792-3.308 1.769-5.12zM9.1101 7.6962l-2.012-2.012c0.9446-0.7404 2.0449-1.2567 3.218-1.51-0.015 1.236-0.445 2.477-1.206 3.522zM7.6861 9.1002c-1.0186 0.696-2.2253 1.0647-3.459 1.057 0.2599-1.1125 0.7572-2.1557 1.458-3.058zM4.0111 12.1462c0.077 2e-3 0.154 0.014 0.231 0.014 1.7597 56e-4 3.4728-0.5655 4.877-1.626l1.467 1.466-4.901 4.901c-1.0576-1.3622-1.645-3.0306-1.674-4.755zM16.3051 14.8912c1.042-0.758 2.28-1.188 3.508-1.206-0.2501 1.1715-0.7619 2.2712-1.497 3.217zM16.9021 18.3162c-0.9017 0.7049-1.9452 1.2064-3.059 1.47-0.0113-1.2382 0.3577-2.4501 1.057-3.472zM11.8581 20.0022c-1.7284-0.0275-3.4004-0.6196-4.761-1.686l4.903-4.902 1.463 1.463c-1.103 1.444-1.659 3.266-1.605 5.125zM19.9821 11.6922c-1.807-0.018-3.633 0.61-5.108 1.768l-1.46-1.46 4.901-4.901c1.023 1.3187 1.6061 2.9252 1.667 4.593z" />
        </symbol>
    </defs>
</svg>