<svg width="112" height="48" viewBox="0 0 112 48" fill="none" xmlns="http://www.w3.org/2000/svg">
<g clip-path="url(#clip0_8208_3134)">
<path d="M99.0365 25.6312C97.9006 25.5933 96.7684 25.5554 95.6315 25.5934C90.353 25.8155 84.3751 26.7511 80.6215 30.8621C78.8305 32.8242 77.8586 35.2546 77.9959 37.9232C78.0857 39.4324 78.4851 40.9072 79.1695 42.2558C79.1632 42.2672 79.1568 42.2785 79.1505 42.2897C79.1471 42.2958 79.1437 42.3019 79.1402 42.3078C78.9389 42.6513 78.5133 43.1292 78.084 43.6111C77.541 44.2209 76.9921 44.8372 76.8841 45.1962C76.8568 45.2873 76.877 45.3985 76.903 45.4877C76.9918 45.7878 77.3004 46.0224 77.5425 46.2064L77.5607 46.2202C78.0917 45.698 78.574 45.1308 79.0562 44.5636L79.0947 44.5184L80.0705 43.3266C82.6622 44.7961 85.2072 45.26 88.1144 44.4533C91.6742 43.4658 94.4267 40.9332 96.2 37.7514C98.1751 34.2092 99.0845 29.6608 99.2166 25.6372L99.0365 25.6312ZM93.8802 29.1814C93.8938 29.1849 93.9072 29.1883 93.9205 29.1917C94.0469 29.2235 94.1614 29.2524 94.2686 29.3376C94.3831 29.4286 94.4728 29.5737 94.465 29.7224C94.4559 29.9001 94.3909 29.9894 94.2686 30.1137C93.8878 30.499 93.4272 30.8377 92.9752 31.17C92.7754 31.3169 92.5773 31.4626 92.3885 31.6105C91.1928 32.5362 90.0147 33.4832 88.8534 34.4512C89.5866 34.2736 92.0444 33.8527 92.6838 34.0713C92.8816 34.1396 92.9473 34.2365 93.028 34.4213C93.0104 34.6945 92.9271 34.8604 92.6669 34.9749C92.5486 35.0272 91.6671 35.1129 90.6785 35.2091C89.5524 35.3186 88.2869 35.4416 87.8529 35.5441C87.5777 35.6092 87.3605 35.7009 87.1295 35.8629C86.78 36.1081 86.464 36.4141 86.1521 36.7162C86.0361 36.8285 85.9207 36.9403 85.8044 37.0482C84.7798 37.9993 83.7747 38.9575 82.7924 39.9529C83.4902 40.107 84.5163 40.0576 85.5098 40.0098C86.6287 39.956 87.7064 39.9041 88.2263 40.1474C88.3115 40.2567 88.3363 40.3725 88.3246 40.5117C88.3148 40.6236 88.251 40.6938 88.1717 40.766C87.7423 41.157 83.5066 41.0321 82.8496 40.9573C82.823 40.9531 82.7955 40.9484 82.7674 40.9436C82.6211 40.9185 82.4587 40.8906 82.3201 40.9196C81.2564 41.1388 79.7992 42.786 79.1662 43.6115L79.2049 43.5212C79.5003 42.832 79.797 42.1398 80.2077 41.5096C80.9032 40.4421 82.8776 38.4657 83.8456 37.5315C83.9994 37.3832 84.1788 37.2322 84.3635 37.0767C84.7718 36.733 85.2063 36.3673 85.4472 35.9611C85.6899 35.5518 85.8344 34.6958 85.9861 33.7974C86.1767 32.6685 86.3786 31.4725 86.801 31.0112C86.9239 30.8771 86.961 30.8692 87.1295 30.8518C87.2961 30.9249 87.4027 30.9959 87.4971 31.1573C87.566 31.2752 87.5751 31.3928 87.5569 31.524C87.5134 31.8421 87.4017 32.1767 87.2924 32.5042C87.2332 32.6813 87.1748 32.8563 87.1282 33.0256C86.9698 33.601 86.8498 34.1856 86.7298 34.7698C86.7163 34.8356 86.7027 34.902 86.6891 34.9678C87.2477 34.4298 87.8754 33.9515 88.4978 33.4772C88.6995 33.3236 88.9006 33.1703 89.0987 33.0155C89.3985 32.7813 89.6995 32.5475 90.0009 32.3135C91.3131 31.2944 92.6323 30.2699 93.8802 29.1814Z" fill="white"/>
<path d="M16.4246 0.403053C16.404 0.405269 16.3838 0.409756 16.3634 0.413139C14.1103 0.683441 12.0709 1.71318 10.6504 3.50952C8.91116 5.70874 8.43536 8.51838 8.76603 11.2545C9.05253 13.6251 10.1366 15.8638 12.0507 17.3375C13.9623 18.8094 16.1858 19.2255 18.5465 19.0418C20.8425 18.7264 22.9138 17.687 24.3401 15.8238C25.995 13.6623 26.4502 10.8074 26.0891 8.15693C25.7612 5.74979 24.5631 3.50745 22.605 2.03995C20.8306 0.710179 18.6228 0.170488 16.4246 0.403053ZM17.1608 3.47316C18.394 3.45794 19.5105 3.68933 20.4807 4.49204C21.6676 5.47397 22.2049 7.02388 22.3414 8.5161C22.5173 10.4379 22.3076 12.7086 21.016 14.2452C20.1266 15.3031 18.9862 15.7258 17.6424 15.8445C17.6174 15.847 17.5926 15.8507 17.5675 15.852C16.428 15.9104 15.2406 15.5733 14.3585 14.8392C13.1473 13.8313 12.635 12.2983 12.5066 10.7709C12.3457 8.85816 12.4951 6.52667 13.8021 4.99699C14.6875 3.96094 15.837 3.56951 17.1608 3.47316Z" fill="white"/>
<path d="M43.8418 5.22598C43.834 5.22686 43.8261 5.22774 43.8183 5.22855C42.2784 5.37714 40.9643 5.98787 39.9615 7.18929C38.7082 8.69074 38.2811 10.7979 38.4676 12.7092C38.6246 14.3189 39.2856 15.9082 40.5678 16.9425C41.8609 17.9855 43.5173 18.2313 45.1313 18.0355C46.4027 17.8813 47.2419 17.3143 48.1213 16.4182C48.1226 16.5051 48.1243 16.5937 48.126 16.6836C48.1494 17.8979 48.1776 19.3663 47.2769 20.2684C46.6714 20.8749 45.8035 21.0041 44.9838 20.987C44.0973 20.9686 43.2044 20.7641 42.574 20.0916C42.3954 19.901 42.2785 19.6648 42.1632 19.4317C42.1429 19.3907 42.1226 19.3498 42.1021 19.3093C41.7808 19.3084 41.4469 19.2974 41.1082 19.2861C40.2877 19.259 39.4394 19.2309 38.6738 19.3445C38.6073 19.5207 38.6566 19.7111 38.7036 19.8922C38.713 19.9282 38.7222 19.9639 38.7304 19.999C39.1882 21.3685 40.1631 22.4237 41.4478 23.0753C43.2725 24.0007 45.8688 24.0817 47.7933 23.4374C49.2094 22.9633 50.4307 22.0041 51.0981 20.653C51.3547 20.1231 51.5196 19.5536 51.5859 18.9687C51.7183 17.897 51.7071 16.7714 51.696 15.6653C51.692 15.2632 51.688 14.8637 51.691 14.4703L51.7126 5.52292C51.3609 5.52343 51.009 5.52498 50.6572 5.52653C49.8332 5.53015 49.0091 5.53378 48.1855 5.52403L48.1834 6.69553C46.89 5.62727 45.5913 5.09084 43.8866 5.22146C43.8716 5.22261 43.8567 5.2243 43.8418 5.22598ZM44.7766 8.083C45.4622 8.02471 46.1804 8.14564 46.7712 8.50949C47.4467 8.92545 47.8659 9.59837 48.0503 10.3598C48.3152 11.4539 48.2967 12.9535 47.6834 13.9262C47.1953 14.7003 46.4921 14.9914 45.6352 15.1706C44.8776 15.2544 44.0968 15.1575 43.4538 14.7166C42.6969 14.1976 42.2866 13.3457 42.1347 12.4613C41.9508 11.3903 42.0766 10.1369 42.7315 9.24064C43.2397 8.54508 43.9448 8.20719 44.7766 8.083Z" fill="white"/>
<path d="M67.7432 30.9296C66.6191 30.0014 65.2146 29.655 63.7782 29.6893C62.0985 29.8196 61.0843 30.3219 59.9751 31.5792L59.9699 29.9818L56.3945 29.9828L56.3958 48.1156L60.0337 48.1124L60.0285 45.4387L60.0337 42.0546C61.351 43.1514 62.7601 43.7102 64.4944 43.5586C66.0213 43.4259 67.3549 42.7324 68.3411 41.5582C69.7202 39.9156 70.1255 37.6328 69.9245 35.5459C69.758 33.8194 69.1126 32.0613 67.7432 30.9296ZM62.805 32.6779C63.5284 32.6011 64.3051 32.7701 64.8991 33.1962C65.7149 33.7809 66.1026 34.7412 66.2359 35.7053C66.409 36.9602 66.2841 38.433 65.4703 39.4589C64.9134 40.1608 64.2407 40.4542 63.3781 40.572C62.6248 40.6455 61.8018 40.4724 61.1845 40.0249C60.4812 39.5148 60.1098 38.7381 59.9751 37.8969C59.7709 36.6251 59.8066 34.896 60.6133 33.8278C61.1708 33.0903 61.9163 32.7857 62.805 32.6779Z" fill="white"/>
<path d="M54.3448 36.0763C54.0477 32.2214 50.6851 29.3351 46.8297 29.6259C42.9654 29.9173 40.0709 33.2895 40.3687 37.1536C40.6665 41.0172 44.0434 43.9063 47.9068 43.6018C51.7612 43.2987 54.642 39.9314 54.3448 36.0763ZM47.0488 32.5445C47.7185 32.4662 48.4622 32.6347 49.0373 32.9803C49.8238 33.4527 50.3049 34.2535 50.5125 35.1318C50.8134 36.4042 50.7589 38.0624 50.0366 39.1924C49.5134 40.0102 48.798 40.3985 47.874 40.5918C47.0331 40.6256 46.2857 40.5592 45.5702 40.0622C44.7713 39.5079 44.3407 38.6017 44.181 37.6663C43.9658 36.4055 44.0652 34.865 44.8431 33.802C45.3976 33.0445 46.1436 32.6844 47.0488 32.5445Z" fill="white"/>
<path d="M14.863 25.134C15.1338 25.0968 15.4264 25.1016 15.7001 25.0927C17.6912 25.0286 19.8266 25.3724 21.3227 26.7984C22.4168 27.8412 22.7389 29.0907 22.7692 30.5576L19.1646 30.5713C19.1227 29.8496 19.015 29.2734 18.4518 28.7588C17.6996 28.0715 16.5723 27.9086 15.5887 27.9579C14.8157 27.9967 14.0099 28.209 13.4879 28.8188C13.1076 29.2629 12.9831 29.8382 13.0469 30.4106C13.1084 30.9619 13.3875 31.4012 13.8444 31.7119C14.5584 32.1976 15.4728 32.3803 16.3016 32.5662C18.1259 32.9754 20.4044 33.299 21.8676 34.5467C22.7649 35.3117 23.1834 36.3252 23.2685 37.4858C23.3724 38.9033 22.9936 40.233 22.0463 41.3071C20.7287 42.8007 18.7653 43.407 16.8353 43.5332C14.704 43.6809 12.3481 43.2574 10.6814 41.8347C9.45908 40.7919 8.94053 39.4576 8.81641 37.8859L12.4882 37.88C12.6555 38.6594 12.9386 39.3093 13.5823 39.8121C14.4671 40.5037 15.7099 40.6422 16.7956 40.5206C17.6434 40.4256 18.5334 40.0951 19.0631 39.3938C19.393 38.9573 19.5095 38.4174 19.4358 37.8787C19.3597 37.3232 19.0459 36.8723 18.5808 36.5666C18.0566 36.2218 17.4099 36.0527 16.8105 35.8933C14.8354 35.3683 12.4666 35.1959 10.8207 33.8935C9.93065 33.1893 9.41074 32.2297 9.28037 31.1024C9.11995 29.715 9.38869 28.4137 10.2708 27.3078C11.3754 25.923 13.1633 25.3314 14.863 25.134Z" fill="white"/>
<path d="M64.6454 6.1657C63.3528 5.32273 61.6457 5.17369 60.1436 5.23113C58.5179 5.33932 56.6197 5.71247 55.4995 7.01427C54.9002 7.71087 54.675 8.54825 54.6371 9.44684L57.9955 9.46037C58.3612 8.72695 58.8068 8.21237 59.618 7.95626C60.3531 7.72414 61.3127 7.72343 61.9964 8.09937C62.3919 8.31705 62.7081 8.68916 62.8349 9.12541C62.905 9.36394 62.9258 9.62051 62.946 9.87015C62.9493 9.91013 62.9525 9.94994 62.9559 9.98946C62.7263 10.246 62.5227 10.4223 62.2026 10.5565C61.4458 10.874 60.5394 10.9335 59.6767 10.9903C59.3765 11.01 59.0817 11.0294 58.8003 11.0591C56.2742 11.3263 53.9211 12.2598 54.1081 15.2466C54.1458 15.8481 54.3026 16.3686 54.5603 16.9103C55.2188 17.9611 56.1057 18.616 57.3216 18.8866C58.7951 19.2145 60.5769 19.06 61.8702 18.2378C62.3171 17.9535 62.6905 17.6007 63.0502 17.214C63.1238 17.7325 63.2266 18.2314 63.3547 18.7391L66.7362 18.7324C66.3632 16.9477 66.3913 15.0958 66.4192 13.263C66.4267 12.7687 66.4341 12.2758 66.4337 11.7859C66.4335 11.6169 66.4349 11.4445 66.4362 11.2698C66.4445 10.1826 66.4535 9.00723 66.1065 8.00069C65.8404 7.22902 65.3233 6.6082 64.6454 6.1657ZM62.844 12.4998L62.9455 12.5547C63.0912 13.315 62.9019 14.3202 62.511 14.9729C62.0823 15.6894 61.3875 16.2302 60.5717 16.4247C59.8242 16.6027 59.1626 16.5063 58.5147 16.0965C58.246 15.8538 58.03 15.6002 57.9162 15.2495C57.7854 14.8439 57.8075 14.356 58.0118 13.9781C58.4658 13.1394 60.0927 12.9208 61.4412 12.7396C61.9862 12.6664 62.4858 12.5993 62.844 12.4998Z" fill="white"/>
<path d="M25.5185 24.9854L29.1362 24.9854L29.1396 31.6948C29.3032 31.4813 29.4677 31.2673 29.6542 31.0731C30.572 30.1172 31.8274 29.6912 33.1326 29.6677C34.4863 29.6433 35.9009 29.9929 36.8866 30.9685C37.5102 31.5856 37.9192 32.3975 38.1093 33.2497C38.38 34.4628 38.2428 35.8445 38.2429 37.0864L38.2448 43.1963L34.63 43.1976C34.6003 41.5615 34.6276 39.9195 34.6278 38.2828C34.6253 36.9609 34.9543 34.533 34.0285 33.4883C33.6059 33.0114 33.0085 32.8131 32.3869 32.7801C31.5444 32.7355 30.6033 32.8438 29.9676 33.4512C29.5741 33.8272 29.3388 34.3392 29.2291 34.8668C29.0077 35.9317 29.1296 37.1612 29.1348 38.247L29.138 43.1963L25.5193 43.1976C25.4802 41.1367 25.5159 39.068 25.5163 37.0064L25.5185 24.9854Z" fill="white"/>
<path d="M76.9631 5.22747C77.1642 5.21205 77.3658 5.20379 77.5675 5.20275C78.8673 5.19507 80.0649 5.57564 80.9998 6.508C81.6035 7.11762 82.0244 7.88377 82.2156 8.72004C82.5084 9.97428 82.3529 11.4321 82.3529 12.7203L82.3607 18.7355H78.7717L78.7762 13.2763C78.7769 12.2894 78.8517 11.2195 78.719 10.2424C78.6624 9.82583 78.5648 9.41501 78.315 9.06847C77.9591 8.57419 77.3593 8.27715 76.7608 8.21027C75.7818 8.10085 74.9263 8.2536 74.1326 8.85151C73.7384 9.29486 73.5595 9.67367 73.4457 10.2567C73.2583 11.211 73.3644 12.3182 73.3657 13.2883L73.3748 18.7351L69.6758 18.7359L69.6816 5.52444L73.244 5.52627C73.2453 6.10395 73.2512 6.6817 73.2609 7.25931C73.3487 7.1441 73.4372 7.03006 73.5276 6.91732C74.4182 5.8088 75.5859 5.37768 76.9631 5.22747Z" fill="white"/>
<path d="M98.0017 5.229C99.4914 5.13806 100.981 5.38689 102.272 6.16663C103.775 7.07537 104.571 8.40385 104.987 10.0763C103.791 10.062 102.595 10.0611 101.399 10.0736C101.121 9.41791 100.727 8.8509 100.128 8.44841C99.507 8.03089 98.7316 7.85642 97.9958 8.0197C97.1482 8.20784 96.4436 8.71897 95.9817 9.45265C95.2499 10.6163 95.1777 12.3314 95.5082 13.6356C95.7404 14.5545 96.2556 15.4244 97.0994 15.9028C97.7909 16.295 98.6906 16.3831 99.4504 16.15C100.442 15.8457 100.992 15.0428 101.435 14.1649L101.98 14.1646L104.917 14.1615C104.668 15.1445 104.331 16.0355 103.685 16.8306C102.603 18.1609 101.012 18.8685 99.3281 19.0431C97.4695 19.2358 95.6012 18.8058 94.1401 17.6065C92.705 16.4285 91.9041 14.7097 91.7448 12.8755C91.5782 10.9553 91.979 9.01093 93.2436 7.5113C94.4673 6.06046 96.1476 5.39418 98.0017 5.229Z" fill="white"/>
<path d="M36.0721 5.29413C36.4068 5.27266 36.7405 5.31312 37.0739 5.34155L37.0726 8.71734L36.5358 8.71325C35.3458 8.71071 33.9961 8.7878 33.1152 9.70506C32.712 10.1249 32.4839 10.6455 32.3603 11.2085C32.1429 12.1999 32.2518 13.3381 32.2561 14.3528L32.2641 18.7349C31.1991 18.7378 29.7312 18.8657 28.7022 18.7057C28.5968 18.5565 28.627 18.4092 28.6211 18.23L28.6215 5.52754L32.193 5.52559C32.2098 6.13834 32.2319 6.75089 32.2594 7.36324C32.3994 7.13568 32.5484 6.92139 32.7208 6.71686C33.555 5.72732 34.8381 5.40062 36.0721 5.29413Z" fill="white"/>
<path d="M85.6947 5.52637L89.3761 5.52923L89.3728 14.2786C89.3728 15.7548 89.4554 17.2659 89.3566 18.7365L85.6836 18.7378C85.7428 17.0234 85.7096 15.2997 85.7096 13.5839L85.6947 5.52637Z" fill="white"/>
<path d="M85.6025 0.39002L89.6827 0.386963C89.6736 1.40552 89.6749 2.42414 89.686 3.44262L85.6025 3.44412V0.39002Z" fill="white"/>
</g>
<defs>
<clipPath id="clip0_8208_3134">
<rect width="112" height="48" fill="white"/>
</clipPath>
</defs>
</svg>
